<svg xmlns="http://www.w3.org/2000/svg" width="50" height="40" viewBox="0 0 50 40"><defs><style>.a{fill:#29438f;}</style></defs><g transform="translate(0 -3.375)"><path class="a" d="M35.573,3.376a10.557,10.557,0,0,1,4.071.8l.025.011a1.625,1.625,0,0,1,.943,1.183,1.6,1.6,0,0,1-.45,1.437l-4.974,4.9a1.062,1.062,0,0,0,0,1.509l2.193,2.159a1.1,1.1,0,0,0,1.534,0l4.991-4.914a1.667,1.667,0,0,1,1.164-.475h0a1.676,1.676,0,0,1,.254.019,1.649,1.649,0,0,1,1.212.865l.013.026a9.756,9.756,0,0,1,.648,5.867A10.554,10.554,0,0,1,44.282,22.5,9.91,9.91,0,0,1,37.2,25.141a15.371,15.371,0,0,1-3.9-.526,1.093,1.093,0,0,0-1.066.3L16.409,41.57a5.606,5.606,0,0,1-5.453,1.643,5.489,5.489,0,0,1-4.044-3.98,5.393,5.393,0,0,1,1.669-5.372L25.466,18.414a1.044,1.044,0,0,0,.308-1.066C24.52,12.959,25.3,8.975,27.922,6.416A11,11,0,0,1,35.573,3.376Zm.514,3.094q-.256-.017-.514-.017A7.829,7.829,0,0,0,30.123,8.6c-2.542,2.483-1.785,6.362-1.341,7.915a4.075,4.075,0,0,1-1.192,4.156L10.677,36.144a2.353,2.353,0,0,0-.733,2.348,2.394,2.394,0,0,0,1.764,1.736,2.445,2.445,0,0,0,2.384-.723l.023-.025L29.951,22.817a4.247,4.247,0,0,1,4.16-1.175,12.2,12.2,0,0,0,3.094.422,6.746,6.746,0,0,0,4.884-1.756,8,8,0,0,0,2.158-5.832l-3.122,3.074a4.262,4.262,0,0,1-5.947,0l-2.2-2.165a4.114,4.114,0,0,1,0-5.854Z" transform="translate(2.624 0)"/><path class="a" d="M17.183,23.91a1.57,1.57,0,0,1-1.089-.435c-1.238-1.185-1.976-1.9-2.516-2.419l-.515-.5-.009-.009a3.24,3.24,0,0,1-.61-3.854l.021-.038a3.54,3.54,0,0,1,.6-.787l.011-.011L14.607,14.4a3.374,3.374,0,0,1,4.688-.031h0c.532.509,1.508,1.444,3.265,3.129a1.522,1.522,0,0,1,.028,2.175,1.58,1.58,0,0,1-2.21.028c-1.755-1.684-2.729-2.617-3.261-3.126l0,0a.207.207,0,0,0-.227-.041.257.257,0,0,0-.077.052l-.015.015-1.524,1.463a.459.459,0,0,0-.062.077.211.211,0,0,0,.046.232l.512.494c.537.519,1.273,1.229,2.506,2.41a1.522,1.522,0,0,1,.031,2.175A1.57,1.57,0,0,1,17.183,23.91Z" transform="translate(4.692 3.695)"/><path class="a" d="M30.5,37.5l-.107,0a2.96,2.96,0,0,1-2.09-.977l-.011-.012c-1.545-1.766-5.78-6.259-9.639-10.228a1.522,1.522,0,0,1,.048-2.175,1.58,1.58,0,0,1,2.209.047c3.776,3.883,7.92,8.277,9.6,10.18l2.911-2.865c-2.083-1.732-6.845-6-10.6-9.447a1.522,1.522,0,0,1-.079-2.174,1.58,1.58,0,0,1,2.208-.078c3.852,3.529,8.753,7.924,10.674,9.5a2.8,2.8,0,0,1,.2,4.192l-3.257,3.206-.012.011A2.967,2.967,0,0,1,30.5,37.5Z" transform="translate(7.084 5.873)"/><path class="a" d="M6.679,24.143H6.668a2.045,2.045,0,0,1-1.409-.557l-.011-.01L.6,19.111l-.042-.042a1.985,1.985,0,0,1,0-2.762L.6,16.264,3.473,13.5a2.026,2.026,0,0,1,1.435-.568,2.059,2.059,0,0,1,.813.168,2.886,2.886,0,0,1,.5-1.889l.02-.026A21.621,21.621,0,0,1,8.322,8.844l.005,0a22.745,22.745,0,0,1,7.336-4.6,12.149,12.149,0,0,1,4.511-.863h.01A8.841,8.841,0,0,1,25.75,5.281l.027.025a10.229,10.229,0,0,1,1.184,1.318,1.519,1.519,0,0,1-.006,1.838,1.577,1.577,0,0,1-1.791.52,6.241,6.241,0,0,0-.7-.209,5.256,5.256,0,0,0-1.482-.09,6.337,6.337,0,0,0-2.876,1.023,3.86,3.86,0,0,0-1.436,3.165c-.034.683-.054,1.1,3.07,4.172q.03.03.059.061a2.141,2.141,0,0,1-.1,3.006L19.92,21.838l-.005,0a2.26,2.26,0,0,1-3.1.027l-.032-.03a23.927,23.927,0,0,0-4.1-3.441,3.065,3.065,0,0,0-1.141-.445,1.477,1.477,0,0,0-.546.053,1.963,1.963,0,0,1-.035,2.808L8.1,23.565A2.052,2.052,0,0,1,6.679,24.143ZM3.594,17.687,6.67,20.643,8.064,19.3a2.857,2.857,0,0,1,.477-3.383l.008-.008a2.669,2.669,0,0,1,.61-.458,4.639,4.639,0,0,1,2.25-.583c.15,0,.3.007.452.022l.017,0a6.113,6.113,0,0,1,2.427.873A24.306,24.306,0,0,1,18.35,19.04l.5-.491c-2.633-2.648-3.4-3.851-3.306-5.827A6.9,6.9,0,0,1,18.171,7.29a7.211,7.211,0,0,1,1.391-.818,8.987,8.987,0,0,0-2.73.62,19.82,19.82,0,0,0-6.317,3.944A18.527,18.527,0,0,0,8.841,12.9c0,.086.01.21.017.3a2.773,2.773,0,0,1-.708,2.376l-.009.008a3.317,3.317,0,0,1-1.925.81,2.581,2.581,0,0,1-1.152-.124Z" transform="translate(0)"/></g></svg>