<svg xmlns="http://www.w3.org/2000/svg" width="42.105" height="40" viewBox="0 0 42.105 40"><defs><style>.a{fill:#29438f;}</style></defs><path class="a" d="M40.895,15.632H29.08l2.364-7.088a4.214,4.214,0,0,0-4-5.544H24.053a2.108,2.108,0,0,0-1.618.758l-9.9,11.874H7.211A4.214,4.214,0,0,0,3,19.842V38.789A4.214,4.214,0,0,0,7.211,43H35.225a4.232,4.232,0,0,0,3.942-2.733l5.8-15.476a2.105,2.105,0,0,0,.133-.738V19.842A4.214,4.214,0,0,0,40.895,15.632ZM7.211,19.842h4.211V38.789H7.211Zm33.684,3.829-5.67,15.119H15.632V18.5L25.038,7.211h2.413l-3.288,9.858a2.1,2.1,0,0,0,2,2.773H40.895Z" transform="translate(-3 -3)"/></svg>