<svg xmlns="http://www.w3.org/2000/svg" xmlns:xlink="http://www.w3.org/1999/xlink" width="143.364" height="64" viewBox="0 0 143.364 64"><defs><style>.a{fill:none;}.b{fill:#fff;}.c{clip-path:url(#a);}.d{clip-path:url(#b);}.e{clip-path:url(#c);}.f{clip-path:url(#d);}.g{clip-path:url(#e);}.h{clip-path:url(#g);}.i{clip-path:url(#h);}.j{clip-path:url(#i);}.k{fill:#dedede;}.l{fill:#1a1818;}.m{fill:#b2b0b0;}.n{fill:#929136;}.o{fill:#ededef;}.p{fill:#54101b;}.q{fill:#df2332;}.r{fill:#95989b;}</style><clipPath id="a"><path class="a" d="M596.813,110.654v11.707c0,7.356,5.694,12.378,14.294,12.378,7.615,0,13.158-4.146,13.158-10.776v-3.1h-9.634V123.4c0,1.916-1.191,3.058-3.367,3.058a3.1,3.1,0,0,1-3.421-3.21V110.032c0-2.436,1.245-3.416,3.421-3.416s3.415.98,3.415,3.416v2.122h9.639v-2.69c0-6.679-4.768-11.134-13.314-11.134-8.287,0-14.192,4.969-14.192,12.324" transform="translate(-596.813 -98.33)"/></clipPath><clipPath id="b"><rect class="a" width="30.578" height="39.987"/></clipPath><clipPath id="c"><path class="b" d="M23.561,123.325h3.313c1.558,0,2.332.569,2.332,1.911v2.955c0,1.347-.774,1.916-2.332,1.916H23.561Zm0-12.383h3.313c1.558,0,2.332.519,2.332,1.921v2.95c0,1.347-.774,1.921-2.332,1.921H23.561Zm-10.825-7.713v34.493H29.828c5.645,0,9.786-2.9,9.786-7.924v-3.21c0-2.9-1.553-5.439-5.591-6.321a6.191,6.191,0,0,0,5.439-6.37v-2.744c0-4.974-4.141-7.924-9.786-7.924Z" transform="translate(-12.736 -103.229)"/></clipPath><clipPath id="d"><rect class="b" width="30.578" height="38.811"/></clipPath><clipPath id="e"><path class="a" d="M187.045,123.325h3.312c1.553,0,2.333.569,2.333,1.911v2.955c0,1.347-.779,1.916-2.333,1.916h-3.312Zm0-12.383h3.312c1.553,0,2.333.519,2.333,1.921v2.95c0,1.347-.779,1.921-2.333,1.921h-3.312Zm-10.83-7.713v34.493h17.1c5.645,0,9.791-2.9,9.791-7.924v-3.21c0-2.9-1.553-5.439-5.6-6.321a6.191,6.191,0,0,0,5.439-6.37v-2.744c0-4.974-4.146-7.924-9.791-7.924Z" transform="translate(-176.215 -103.229)"/></clipPath><clipPath id="g"><path class="a" d="M450.994,103.229v34.493h24.6v-8.806H461.824v-5.8h9.007v-6h-9.007v-5.65H475.6v-8.233Z" transform="translate(-450.994 -103.229)"/></clipPath><clipPath id="h"><rect class="a" width="28.226" height="38.811"/></clipPath><clipPath id="i"><rect class="a" width="143.364" height="55.045"/></clipPath></defs><g transform="translate(113.438 18.69)"><g class="c"><g transform="translate(-1.446 -1.401)"><g class="d"><rect class="b" width="30.578" height="39.987"/></g></g></g></g><g transform="translate(2.421 19.621)"><g class="e"><g transform="translate(-2.156 -2.333)"><g class="f" transform="translate(0)"><path class="b" d="M0,0H30.578V38.811H0Z"/></g></g></g></g><g transform="translate(33.494 19.621)"><g class="g"><g transform="translate(-1.475 -2.333)"><g class="f"><rect class="b" width="30.578" height="38.811"/></g></g></g></g><g transform="translate(85.721 19.621)"><g class="h"><g transform="translate(-1.955 -2.333)"><g class="i"><rect class="b" width="28.226" height="38.811"/></g></g></g></g><g transform="translate(3.258 58.675)"><path class="b" d="M17.142,309.049a7.889,7.889,0,0,1,1.369-.106,2.447,2.447,0,0,1,1.476.328,1.087,1.087,0,0,1,.536.964,1.2,1.2,0,0,1-.857,1.116v.016a1.3,1.3,0,0,1,1.04,1.277,1.338,1.338,0,0,1-.5,1.064,2.868,2.868,0,0,1-1.913.482,8.9,8.9,0,0,1-1.155-.07Zm.933,2.035h.482c.65,0,1.018-.306,1.018-.742,0-.481-.368-.7-.964-.7a2.541,2.541,0,0,0-.535.038Zm0,2.371a4.048,4.048,0,0,0,.5.023c.6,0,1.14-.23,1.14-.864,0-.6-.52-.841-1.17-.841h-.466Z" transform="translate(-17.142 -308.897)"/><path class="b" d="M51.677,312.837l-.443,1.462h-.972l1.653-5.156h1.2l1.676,5.156h-1.01l-.467-1.462Zm1.477-.711-.405-1.271c-.1-.313-.184-.666-.26-.963h-.015c-.077.3-.153.658-.245.963l-.4,1.271Z" transform="translate(-43.967 -309.058)"/><path class="b" d="M89.943,309.049a8.957,8.957,0,0,1,1.423-.106,2.39,2.39,0,0,1,1.591.413,1.3,1.3,0,0,1,.444,1.033,1.376,1.376,0,0,1-.933,1.293v.023a1.31,1.31,0,0,1,.719.994,10.349,10.349,0,0,0,.405,1.438h-.971a7.228,7.228,0,0,1-.344-1.216c-.145-.674-.39-.888-.926-.9h-.474v2.12h-.933Zm.933,2.281h.558c.635,0,1.033-.337,1.033-.85,0-.566-.4-.826-1.01-.826a2.69,2.69,0,0,0-.581.046Z" transform="translate(-76.106 -308.897)"/><path class="b" d="M124.916,309.049a8.955,8.955,0,0,1,1.422-.106,2.391,2.391,0,0,1,1.592.413,1.307,1.307,0,0,1,.444,1.033,1.376,1.376,0,0,1-.933,1.293v.023a1.309,1.309,0,0,1,.718.994,10.294,10.294,0,0,0,.407,1.438h-.972a7.228,7.228,0,0,1-.344-1.216c-.145-.674-.39-.888-.925-.9h-.474v2.12h-.933Zm.933,2.281h.559c.635,0,1.033-.337,1.033-.85,0-.566-.4-.826-1.011-.826a2.688,2.688,0,0,0-.581.046Z" transform="translate(-104.431 -308.897)"/><path class="b" d="M159.536,312.837l-.444,1.462h-.971l1.652-5.156h1.2l1.675,5.156h-1.01l-.466-1.462Zm1.476-.711-.405-1.271c-.1-.313-.183-.666-.26-.963h-.016c-.076.3-.153.658-.244.963l-.4,1.271Z" transform="translate(-131.325 -309.058)"/><path class="b" d="M201.515,312.195c-.031-.665-.068-1.469-.061-2.165h-.023c-.169.628-.382,1.324-.612,1.973l-.75,2.234h-.727l-.689-2.2c-.2-.657-.383-1.361-.52-2h-.016c-.023.673-.054,1.492-.092,2.2l-.115,2.073h-.88l.344-5.156h1.239l.674,2.073c.183.6.344,1.216.474,1.79h.023c.138-.558.314-1.193.513-1.8l.711-2.066h1.225l.3,5.156h-.918Z" transform="translate(-162.84 -309.058)"/><path class="b" d="M245.919,312.012h-1.943v1.514h2.172v.773h-3.114v-5.156h3v.773h-2.058v1.331h1.943Z" transform="translate(-200.099 -309.058)"/><path class="b" d="M275.83,314.3v-5.156H276.9l1.331,2.211a14.067,14.067,0,0,1,.88,1.729h.015c-.061-.689-.084-1.354-.084-2.143v-1.8h.873V314.3h-.972l-1.347-2.265a17.929,17.929,0,0,1-.926-1.783l-.023.008c.039.666.046,1.347.046,2.2V314.3Z" transform="translate(-226.661 -309.059)"/><path class="b" d="M314.044,309.93h-1.469v-.788h3.894v.788h-1.483V314.3h-.941Z" transform="translate(-256.421 -309.058)"/><path class="b" d="M350.623,311.309a2.438,2.438,0,0,1-2.471,2.716,2.382,2.382,0,0,1-2.371-2.624,2.468,2.468,0,0,1,2.448-2.7,2.382,2.382,0,0,1,2.395,2.609m-3.849.076c0,1.049.527,1.883,1.431,1.883s1.423-.842,1.423-1.92c0-.972-.482-1.89-1.423-1.89s-1.431.864-1.431,1.928" transform="translate(-283.315 -308.7)"/><path class="b" d="M386.548,312.914a2.6,2.6,0,0,0,1.247.33c.6,0,.941-.283.941-.7,0-.39-.26-.619-.918-.856-.849-.306-1.392-.758-1.392-1.5,0-.842.7-1.485,1.821-1.485a2.719,2.719,0,0,1,1.239.26l-.23.757a2.188,2.188,0,0,0-1.025-.244c-.6,0-.856.321-.856.619,0,.4.3.582.986.85.9.337,1.331.788,1.331,1.53,0,.826-.628,1.546-1.959,1.546a3.059,3.059,0,0,1-1.392-.322Z" transform="translate(-316.167 -308.699)"/><path class="b" d="M440.915,309.049a7.888,7.888,0,0,1,1.369-.106,2.451,2.451,0,0,1,1.477.328,1.088,1.088,0,0,1,.535.964,1.2,1.2,0,0,1-.856,1.116v.016a1.3,1.3,0,0,1,1.04,1.277,1.336,1.336,0,0,1-.5,1.064,2.864,2.864,0,0,1-1.912.482,8.9,8.9,0,0,1-1.155-.07Zm.933,2.035h.482c.651,0,1.017-.306,1.017-.742,0-.481-.366-.7-.964-.7a2.55,2.55,0,0,0-.536.038Zm0,2.371a4.071,4.071,0,0,0,.5.023c.6,0,1.139-.23,1.139-.864,0-.6-.52-.841-1.171-.841h-.466Z" transform="translate(-360.368 -308.897)"/><path class="b" d="M476.17,309.142h.941v4.369h2.119v.788h-3.06Z" transform="translate(-388.921 -309.058)"/><rect class="b" width="0.941" height="5.156" transform="translate(93.314 0.084)"/><path class="b" d="M530.781,314.3v-5.156h1.071l1.331,2.211a14.058,14.058,0,0,1,.88,1.729h.015c-.061-.689-.084-1.354-.084-2.143v-1.8h.873V314.3h-.972l-1.347-2.265a17.885,17.885,0,0,1-.926-1.783l-.023.008c.039.666.046,1.347.046,2.2V314.3Z" transform="translate(-433.153 -309.059)"/><path class="b" d="M570.057,309.049a9.537,9.537,0,0,1,1.5-.106,3.146,3.146,0,0,1,2.1.6,2.308,2.308,0,0,1,.8,1.9,2.668,2.668,0,0,1-.8,2.05,3.439,3.439,0,0,1-2.334.7,10.108,10.108,0,0,1-1.27-.069Zm.941,4.369a3.466,3.466,0,0,0,.52.023,1.766,1.766,0,0,0,1.95-1.974,1.635,1.635,0,0,0-1.828-1.79,2.993,2.993,0,0,0-.642.054Z" transform="translate(-464.963 -308.897)"/><path class="b" d="M608.379,312.837l-.444,1.462h-.971l1.652-5.156h1.2l1.675,5.156h-1.01l-.466-1.462Zm1.476-.711-.405-1.271c-.1-.313-.183-.666-.26-.963h-.016c-.076.3-.153.658-.244.963l-.4,1.271Z" transform="translate(-494.855 -309.058)"/><path class="b" d="M646.644,309.049a9.536,9.536,0,0,1,1.5-.106,3.144,3.144,0,0,1,2.1.6,2.308,2.308,0,0,1,.8,1.9,2.668,2.668,0,0,1-.8,2.05,3.439,3.439,0,0,1-2.334.7,10.106,10.106,0,0,1-1.27-.069Zm.941,4.369a3.467,3.467,0,0,0,.52.023,1.766,1.766,0,0,0,1.95-1.974,1.635,1.635,0,0,0-1.828-1.79,2.994,2.994,0,0,0-.642.054Z" transform="translate(-526.993 -308.897)"/><path class="b" d="M689.6,311.309a2.438,2.438,0,0,1-2.471,2.716,2.382,2.382,0,0,1-2.371-2.624,2.468,2.468,0,0,1,2.448-2.7,2.382,2.382,0,0,1,2.394,2.609m-3.849.076c0,1.049.527,1.883,1.431,1.883s1.422-.842,1.422-1.92c0-.972-.482-1.89-1.422-1.89s-1.431.864-1.431,1.928" transform="translate(-557.863 -308.7)"/><path class="b" d="M725.565,312.914a2.6,2.6,0,0,0,1.247.33c.6,0,.941-.283.941-.7,0-.39-.26-.619-.918-.856-.849-.306-1.392-.758-1.392-1.5,0-.842.7-1.485,1.821-1.485a2.719,2.719,0,0,1,1.239.26l-.23.757a2.187,2.187,0,0,0-1.024-.244c-.6,0-.857.321-.857.619,0,.4.3.582.986.85.9.337,1.331.788,1.331,1.53,0,.826-.628,1.546-1.959,1.546a3.059,3.059,0,0,1-1.392-.322Z" transform="translate(-590.747 -308.699)"/></g><g class="j"><path class="k" d="M0,0H12.462V69.859H0Z" transform="translate(65.459 15.309)"/><path class="k" d="M0,0H110.169V11.589H0Z" transform="translate(16.475 3.724)"/><path class="l" d="M196.35,30.688H85.877V18.8H196.35Zm-110.169-.3h109.87V19.094H86.181Z" transform="translate(-69.554 -15.223)"/><rect class="m" width="123.919" height="1.333" transform="translate(9.703 2.386)"/><path class="l" d="M174.466,13.394H50.248V11.757H174.466Zm-123.915-.3H174.167V12.066H50.552Z" transform="translate(-40.697 -9.522)"/><rect class="m" width="1.333" height="75.318" transform="translate(64.787 16.647)"/><path class="l" d="M341.694,162.4h-1.637V86.781h1.637Zm-1.333-.3h1.029V87.08h-1.029Z" transform="translate(-275.422 -70.286)"/><rect class="m" width="1.333" height="75.318" transform="translate(77.254 16.647)"/><path class="l" d="M407.281,162.4h-1.637V86.781h1.637Zm-1.333-.3h1.029V87.08h-1.029Z" transform="translate(-328.542 -70.286)"/><rect class="n" width="0.652" height="71.162" transform="translate(68.399 16.666)"/><path class="l" d="M360.031,158.358h-.47V87.377h.47Zm.181-71.162h-.833V158.54h.833V87.2Z" transform="translate(-291.071 -70.622)"/><rect class="n" width="0.652" height="71.162" transform="translate(70.378 16.666)"/><path class="l" d="M370.447,158.358h-.47V87.377h.47Zm.181-71.162h-.833V158.54h.833V87.2Z" transform="translate(-299.507 -70.622)"/><rect class="n" width="0.652" height="71.162" transform="translate(72.402 16.666)"/><path class="l" d="M381.108,158.358h-.47V87.377h.47Zm.181-71.162h-.833V158.54h.833V87.2Z" transform="translate(-308.142 -70.622)"/><rect class="n" width="0.652" height="71.162" transform="translate(74.338 16.666)"/><path class="l" d="M391.294,158.358h-.47V87.377h.47Zm.181-71.162h-.833V158.54h.833V87.2Z" transform="translate(-316.392 -70.622)"/><rect class="n" width="0.652" height="3.254" transform="translate(74.338 12.398)"/><path class="l" d="M391.294,68h-.47V64.926h.47Zm.181-3.254h-.833V68.18h.833V64.745Z" transform="translate(-316.392 -52.439)"/><rect class="n" width="0.652" height="8.963" transform="translate(68.399 6.689)"/><path class="l" d="M360.031,43.686h-.47V34.9h.47Zm.181-8.963h-.833v9.144h.833V34.723Z" transform="translate(-291.071 -28.123)"/><rect class="n" width="0.652" height="6.816" transform="translate(70.378 8.835)"/><path class="l" d="M370.447,52.818h-.47V46.183h.47ZM370.628,46h-.833v7h.833V46Z" transform="translate(-299.507 -37.258)"/><rect class="n" width="0.652" height="4.998" transform="translate(72.402 10.653)"/><path class="l" d="M381.108,60.568h-.47V55.75h.47Zm.181-5h-.833v5.18h.833v-5.18Z" transform="translate(-308.142 -45.007)"/><rect class="o" width="2.857" height="0.617" transform="translate(72.324 61.475)"/><rect class="o" width="2.857" height="0.617" transform="translate(68.316 61.475)"/><path class="l" d="M359.888,321.8h-4.053v1.23h8.056V321.8Zm-.358,1.078h-3.166v-.921h3.166Zm4.053,0h-3.166v-.921h3.166Z" transform="translate(-288.201 -260.638)"/><path class="l" d="M379.94,323.549h3.166v-.921H379.94Zm.1-.769H382.9v.617h-2.857Z" transform="translate(-307.724 -261.305)"/><path class="l" d="M358.619,323.549h3.166v-.921h-3.166Zm.152-.769h2.857v.617h-2.857Z" transform="translate(-290.456 -261.305)"/><rect class="o" width="2.857" height="0.617" transform="translate(72.324 62.705)"/><rect class="o" width="2.857" height="0.617" transform="translate(68.316 62.705)"/><path class="l" d="M359.888,328.275h-4.053v1.23h8.056v-1.23Zm-.358,1.078h-3.166v-.921h3.166Zm4.053,0h-3.166v-.921h3.166Z" transform="translate(-288.201 -265.879)"/><path class="l" d="M379.94,330.021h3.166V329.1H379.94Zm.1-.769H382.9v.617h-2.857Z" transform="translate(-307.724 -266.547)"/><path class="l" d="M358.619,330.021h3.166V329.1h-3.166Zm.152-.769h2.857v.617h-2.857Z" transform="translate(-290.456 -266.547)"/><rect class="o" width="2.857" height="0.617" transform="translate(72.324 40.854)"/><rect class="o" width="2.857" height="0.617" transform="translate(68.316 40.854)"/><path class="l" d="M359.888,213.341h-4.053v1.23h8.056v-1.23Zm-.358,1.073h-3.166v-.921h3.166Zm4.053,0h-3.166v-.921h3.166Z" transform="translate(-288.201 -172.791)"/><path class="l" d="M379.94,215.061h3.166v-.921H379.94Zm.1-.769H382.9v.617h-2.857Z" transform="translate(-307.724 -173.438)"/><path class="l" d="M358.619,215.061h3.166v-.921h-3.166Zm.152-.769h2.857v.617h-2.857Z" transform="translate(-290.456 -173.438)"/><rect class="o" width="2.857" height="0.617" transform="translate(72.324 42.084)"/><rect class="o" width="2.857" height="0.617" transform="translate(68.316 42.084)"/><path class="l" d="M359.888,219.812h-4.053v1.23h8.056v-1.23Zm-.358,1.078h-3.166v-.921h3.166Zm4.053,0h-3.166v-.921h3.166Z" transform="translate(-288.201 -178.032)"/><path class="l" d="M379.94,221.558h3.166v-.921H379.94Zm.1-.774H382.9v.617h-2.857Z" transform="translate(-307.724 -178.7)"/><path class="l" d="M358.619,221.558h3.166v-.921h-3.166Zm.152-.774h2.857v.617h-2.857Z" transform="translate(-290.456 -178.7)"/><rect class="o" width="2.857" height="0.617" transform="translate(72.324 20.238)"/><rect class="o" width="2.857" height="0.617" transform="translate(68.316 20.238)"/><path class="l" d="M359.888,104.853h-4.053v1.23h8.056v-1.23Zm-.358,1.078h-3.166v-.921h3.166Zm4.053,0h-3.166v-.921h3.166Z" transform="translate(-288.201 -84.923)"/><path class="l" d="M379.94,106.6h3.166v-.921H379.94Zm.1-.769H382.9v.617h-2.857Z" transform="translate(-307.724 -85.592)"/><path class="l" d="M358.619,106.6h3.166v-.921h-3.166Zm.152-.769h2.857v.617h-2.857Z" transform="translate(-290.456 -85.592)"/><rect class="o" width="2.857" height="0.617" transform="translate(72.324 21.468)"/><rect class="o" width="2.857" height="0.617" transform="translate(68.316 21.468)"/><path class="l" d="M359.888,111.324h-4.053v1.23h8.056v-1.23Zm-.358,1.078h-3.166v-.921h3.166Zm4.053,0h-3.166v-.921h3.166Z" transform="translate(-288.201 -90.164)"/><path class="l" d="M379.94,113.07h3.166v-.921H379.94Zm.1-.769H382.9v.617h-2.857Z" transform="translate(-307.724 -90.833)"/><path class="l" d="M358.619,113.07h3.166v-.921h-3.166Zm.152-.769h2.857v.617h-2.857Z" transform="translate(-290.456 -90.833)"/><path class="p" d="M691.064,29.648v-.113h-.774v.113h-.441v-.113h-.74v.113h-.441v-.113h-2.573v.113h-.441v-.113h-.774v.113h-.441v-.113h-.74v.113h-.446v-.113h-.843v-.627h.843V28.8h.446v.113h.74V28.8h.441v.113h.774V28.8h.441v.113h2.573V28.8h.441v.113h.74V28.8h.441v.113h.774V28.8h.441v.113h.823v.627H691.5v.113Z" transform="translate(-552.703 -23.322)"/><path class="l" d="M690.94,28.452v.117h.819v.412h-.819v.113h-.23v-.113h-.985v.113h-.23v-.113h-.951v.113h-.235v-.113H685.53v.113h-.23v-.113h-.985v.113h-.23v-.113h-.956v.113h-.23v-.113h-.843v-.412h.843v-.117h.23v.117h.956v-.117h.23v.117h.985v-.117h.23v.117h2.778v-.117h.235v.117h.951v-.117h.23v.117h.985v-.117Zm.211-.211H690.5v.113h-.563v-.113h-.652v.113h-.529v-.113H688.1v.113h-2.357v-.113h-.657v.113h-.559v-.113h-.656v.113h-.529v-.113h-.652v.113h-.848v.838h.848V29.3h.652v-.113h.529V29.3h.656v-.113h.559V29.3h.657v-.113H688.1V29.3h.657v-.113h.529V29.3h.652v-.113h.563V29.3h.652v-.113h.818v-.838h-.818Z" transform="translate(-552.241 -22.873)"/><path class="q" d="M732.263,29.571l-.451-.451.451-.451h1.044l.451.451-.451.451Z" transform="translate(-592.715 -23.22)"/><path class="l" d="M732.993,28.419l.377.377-.377.373h-1.044l-.377-.373.377-.377Zm0-.152h-1.044l-.524.529.524.524h1.044l.529-.524Z" transform="translate(-592.401 -22.894)"/><path class="q" d="M674.515,29.571l-.451-.451.451-.451h1.044l.451.451-.451.451Z" transform="translate(-545.944 -23.22)"/><path class="l" d="M675.228,28.419l.377.377-.377.373h-1.044l-.377-.373.377-.377Zm0-.152h-1.044l-.529.529.529.524h1.044l.529-.524Z" transform="translate(-545.612 -22.894)"/><path class="p" d="M691.064,38.017V37.9h-.774v.118h-.441V37.9h-.74v.118h-.441V37.9h-2.573v.118h-.441V37.9h-.774v.118h-.441V37.9h-.74v.118h-.446V37.9h-.843v-.622h.843v-.113h.446v.113h.74v-.113h.441v.113h.774v-.113h.441v.113h2.573v-.113h.441v.113h.74v-.113h.441v.113h.774v-.113h.441v.113h.823V37.9H691.5v.118Z" transform="translate(-552.703 -30.1)"/><path class="l" d="M690.94,36.816v.117h.819v.412h-.819v.113h-.23v-.113h-.985v.113h-.23v-.113h-.951v.113h-.235v-.113H685.53v.113h-.23v-.113h-.985v.113h-.23v-.113h-.956v.113h-.23v-.113h-.843v-.412h.843v-.117h.23v.117h.956v-.117h.23v.117h.985v-.117h.23v.117h2.778v-.117h.235v.117h.951v-.117h.23v.117h.985v-.117Zm.211-.211H690.5v.113h-.563V36.6h-.652v.113h-.529V36.6H688.1v.113h-2.357V36.6h-.657v.113h-.559V36.6h-.656v.113h-.529V36.6h-.652v.113h-.848v.838h.848v.113h.652v-.113h.529v.113h.656v-.113h.559v.113h.657v-.113H688.1v.113h.657v-.113h.529v.113h.652v-.113h.563v.113h.652v-.113h.818v-.838h-.818Z" transform="translate(-552.241 -29.647)"/><path class="q" d="M732.263,37.937l-.451-.451.451-.451h1.044l.451.451-.451.451Z" transform="translate(-592.715 -29.996)"/><path class="l" d="M732.993,36.785l.377.373-.377.377h-1.044l-.377-.377.377-.373Zm0-.152h-1.044l-.524.524.524.529h1.044l.529-.529Z" transform="translate(-592.401 -29.67)"/><path class="q" d="M674.515,37.937l-.451-.451.451-.451h1.044l.451.451-.451.451Z" transform="translate(-545.944 -29.996)"/><path class="l" d="M675.228,36.785l.377.373-.377.377h-1.044l-.377-.377.377-.373Zm0-.152h-1.044l-.529.524.529.529h1.044l.529-.529Z" transform="translate(-545.612 -29.67)"/><path class="p" d="M691.064,48.68v-.118h-.774v.118h-.441v-.118h-.74v.118h-.441v-.118h-2.573v.118h-.441v-.118h-.774v.118h-.441v-.118h-.74v.118h-.446v-.118h-.843V47.94h.843v-.113h.446v.113h.74v-.113h.441v.113h.774v-.113h.441v.113h2.573v-.113h.441v.113h.74v-.113h.441v.113h.774v-.113h.441v.113h.823v.622H691.5v.118Z" transform="translate(-552.703 -38.737)"/><path class="l" d="M690.94,47.479V47.6h.819v.412h-.819v.113h-.23v-.113h-.985v.113h-.23v-.113h-.951v.113h-.235v-.113H685.53v.113h-.23v-.113h-.985v.113h-.23v-.113h-.956v.113h-.23v-.113h-.843V47.6h.843v-.117h.23V47.6h.956v-.117h.23V47.6h.985v-.117h.23V47.6h2.778v-.117h.235V47.6h.951v-.117h.23V47.6h.985v-.117Zm.211-.211H690.5v.118h-.563v-.118h-.652v.118h-.529v-.118H688.1v.118h-2.357v-.118h-.657v.118h-.559v-.118h-.656v.118h-.529v-.118h-.652v.118h-.848v.833h.848v.113h.652v-.113h.529v.113h.656v-.113h.559v.113h.657v-.113H688.1v.113h.657v-.113h.529v.113h.652v-.113h.563v.113h.652v-.113h.818v-.833h-.818Z" transform="translate(-552.241 -38.284)"/><path class="q" d="M732.263,48.6l-.451-.451.451-.451h1.044l.451.451-.451.451Z" transform="translate(-592.715 -38.634)"/><path class="l" d="M732.993,47.448l.377.377-.377.373h-1.044l-.377-.373.377-.377Zm0-.152h-1.044l-.524.529.524.524h1.044l.529-.524Z" transform="translate(-592.401 -38.306)"/><path class="q" d="M674.515,48.6l-.451-.451.451-.451h1.044l.451.451-.451.451Z" transform="translate(-545.944 -38.634)"/><path class="l" d="M675.228,47.448l.377.377-.377.373h-1.044l-.377-.373.377-.377Zm0-.152h-1.044l-.529.529.529.524h1.044l.529-.524Z" transform="translate(-545.612 -38.306)"/><path class="p" d="M691.064,59.07v-.118h-.774v.118h-.441v-.118h-.74v.118h-.441v-.118h-2.573v.118h-.441v-.118h-.774v.118h-.441v-.118h-.74v.118h-.446v-.118h-.843V58.33h.843v-.113h.446v.113h.74v-.113h.441v.113h.774v-.113h.441v.113h2.573v-.113h.441v.113h.74v-.113h.441v.113h.774v-.113h.441v.113h.823v.622H691.5v.118Z" transform="translate(-552.703 -47.152)"/><path class="l" d="M690.94,57.869v.117h.819V58.4h-.819v.113h-.23V58.4h-.985v.113h-.23V58.4h-.951v.113h-.235V58.4H685.53v.113h-.23V58.4h-.985v.113h-.23V58.4h-.956v.113h-.23V58.4h-.843v-.412h.843v-.117h.23v.117h.956v-.117h.23v.117h.985v-.117h.23v.117h2.778v-.117h.235v.117h.951v-.117h.23v.117h.985v-.117Zm.211-.211H690.5v.113h-.563v-.113h-.652v.113h-.529v-.113H688.1v.113h-2.357v-.113h-.657v.113h-.559v-.113h-.656v.113h-.529v-.113h-.652v.113h-.848v.838h.848v.113h.652v-.113h.529v.113h.656v-.113h.559v.113h.657v-.113H688.1v.113h.657v-.113h.529v.113h.652v-.113h.563v.113h.652v-.113h.818v-.838h-.818Z" transform="translate(-552.241 -46.699)"/><path class="q" d="M732.263,58.99l-.451-.451.451-.451h1.044l.451.451-.451.451Z" transform="translate(-592.715 -47.047)"/><path class="l" d="M732.993,57.838l.377.377-.377.373h-1.044l-.377-.373.377-.377Zm0-.152h-1.044l-.524.529.524.524h1.044l.529-.524Z" transform="translate(-592.401 -46.722)"/><path class="q" d="M674.515,58.99l-.451-.451.451-.451h1.044l.451.451-.451.451Z" transform="translate(-545.944 -47.047)"/><path class="l" d="M675.228,57.838l.377.377-.377.373h-1.044l-.377-.373.377-.377Zm0-.152h-1.044l-.529.529.529.524h1.044l.529-.524Z" transform="translate(-545.612 -46.722)"/><path class="p" d="M691.064,68.238V68.12h-.774v.118h-.441V68.12h-.74v.118h-.441V68.12h-2.573v.118h-.441V68.12h-.774v.118h-.441V68.12h-.74v.118h-.446V68.12h-.843V67.5h.843v-.113h.446V67.5h.74v-.113h.441V67.5h.774v-.113h.441V67.5h2.573v-.113h.441V67.5h.74v-.113h.441V67.5h.774v-.113h.441V67.5h.823v.622H691.5v.118Z" transform="translate(-552.703 -54.577)"/><path class="l" d="M690.94,67.034v.117h.819v.412h-.819v.113h-.23v-.113h-.985v.113h-.23v-.113h-.951v.113h-.235v-.113H685.53v.113h-.23v-.113h-.985v.113h-.23v-.113h-.956v.113h-.23v-.113h-.843v-.412h.843v-.117h.23v.117h.956v-.117h.23v.117h.985v-.117h.23v.117h2.778v-.117h.235v.117h.951v-.117h.23v.117h.985v-.117Zm.211-.211H690.5v.113h-.563v-.113h-.652v.113h-.529v-.113H688.1v.113h-2.357v-.113h-.657v.113h-.559v-.113h-.656v.113h-.529v-.113h-.652v.113h-.848v.838h.848v.113h.652v-.113h.529v.113h.656v-.113h.559v.113h.657v-.113H688.1v.113h.657v-.113h.529v.113h.652v-.113h.563v.113h.652v-.113h.818v-.838h-.818Z" transform="translate(-552.241 -54.122)"/><path class="q" d="M732.263,68.155l-.451-.451.451-.451h1.044l.451.451-.451.451Z" transform="translate(-592.715 -54.47)"/><path class="l" d="M732.993,67.006l.377.377-.377.373h-1.044l-.377-.373.377-.377Zm0-.152h-1.044l-.524.529.524.524h1.044l.529-.524Z" transform="translate(-592.401 -54.147)"/><path class="q" d="M674.515,68.155l-.451-.451.451-.451h1.044l.451.451-.451.451Z" transform="translate(-545.944 -54.47)"/><path class="l" d="M675.228,67.006l.377.377-.377.373h-1.044l-.377-.373.377-.377Zm0-.152h-1.044l-.529.529.529.524h1.044l.529-.524Z" transform="translate(-545.612 -54.147)"/><path class="p" d="M29.333,29.648v-.113h-.774v.113h-.441v-.113h-.74v.113h-.441v-.113H24.364v.113h-.441v-.113h-.774v.113h-.441v-.113h-.74v.113h-.446v-.113h-.843v-.627h.843V28.8h.446v.113h.74V28.8h.441v.113h.774V28.8h.441v.113h2.573V28.8h.441v.113h.74V28.8h.441v.113h.774V28.8h.441v.113H30.6v.627h-.823v.113Z" transform="translate(-16.749 -23.322)"/><path class="l" d="M29.209,28.452v.117h.818v.412h-.818v.113h-.23v-.113h-.985v.113h-.23v-.113h-.956v.113h-.23v-.113H23.8v.113h-.23v-.113h-.985v.113h-.23v-.113H21.4v.113h-.23v-.113h-.843v-.412h.843v-.117h.23v.117h.955v-.117h.23v.117h.985v-.117h.23v.117h2.778v-.117h.23v.117h.956v-.117h.23v.117h.985v-.117Zm.211-.211h-.652v.113H28.2v-.113h-.652v.113h-.529v-.113h-.657v.113H24.01v-.113h-.657v.113h-.559v-.113h-.657v.113h-.529v-.113h-.652v.113h-.848v.838h.848V29.3h.652v-.113h.529V29.3h.657v-.113h.559V29.3h.657v-.113h2.357V29.3h.657v-.113h.529V29.3H28.2v-.113h.564V29.3h.652v-.113h.818v-.838H29.42Z" transform="translate(-16.287 -22.873)"/><path class="q" d="M70.532,29.571l-.451-.451.451-.451h1.044l.451.451-.451.451Z" transform="translate(-56.761 -23.22)"/><path class="l" d="M71.263,28.419l.377.377-.377.373H70.219l-.377-.373.377-.377Zm0-.152H70.219l-.524.529.524.524h1.044l.529-.524Z" transform="translate(-56.448 -22.894)"/><path class="q" d="M12.787,29.571l-.451-.451.451-.451h1.044l.451.451-.451.451Z" transform="translate(-9.991 -23.22)"/><path class="l" d="M13.5,28.419l.377.377-.377.373H12.452l-.377-.373.377-.377Zm0-.152H12.452l-.529.529.529.524H13.5l.529-.524Z" transform="translate(-9.657 -22.894)"/><path class="p" d="M29.333,38.017V37.9h-.774v.118h-.441V37.9h-.74v.118h-.441V37.9H24.364v.118h-.441V37.9h-.774v.118h-.441V37.9h-.74v.118h-.446V37.9h-.843v-.622h.843v-.113h.446v.113h.74v-.113h.441v.113h.774v-.113h.441v.113h2.573v-.113h.441v.113h.74v-.113h.441v.113h.774v-.113h.441v.113H30.6V37.9h-.823v.118Z" transform="translate(-16.749 -30.1)"/><path class="l" d="M29.209,36.816v.117h.818v.412h-.818v.113h-.23v-.113h-.985v.113h-.23v-.113h-.956v.113h-.23v-.113H23.8v.113h-.23v-.113h-.985v.113h-.23v-.113H21.4v.113h-.23v-.113h-.843v-.412h.843v-.117h.23v.117h.955v-.117h.23v.117h.985v-.117h.23v.117h2.778v-.117h.23v.117h.956v-.117h.23v.117h.985v-.117Zm.211-.211h-.652v.113H28.2V36.6h-.652v.113h-.529V36.6h-.657v.113H24.01V36.6h-.657v.113h-.559V36.6h-.657v.113h-.529V36.6h-.652v.113h-.848v.838h.848v.113h.652v-.113h.529v.113h.657v-.113h.559v.113h.657v-.113h2.357v.113h.657v-.113h.529v.113H28.2v-.113h.564v.113h.652v-.113h.818v-.838H29.42Z" transform="translate(-16.287 -29.647)"/><path class="q" d="M70.532,37.937l-.451-.451.451-.451h1.044l.451.451-.451.451Z" transform="translate(-56.761 -29.996)"/><path class="l" d="M71.263,36.785l.377.373-.377.377H70.219l-.377-.377.377-.373Zm0-.152H70.219l-.524.524.524.529h1.044l.529-.529Z" transform="translate(-56.448 -29.67)"/><path class="q" d="M12.787,37.937l-.451-.451.451-.451h1.044l.451.451-.451.451Z" transform="translate(-9.991 -29.996)"/><path class="l" d="M13.5,36.785l.377.373-.377.377H12.452l-.377-.377.377-.373Zm0-.152H12.452l-.529.524.529.529H13.5l.529-.529Z" transform="translate(-9.657 -29.67)"/><path class="p" d="M29.333,48.68v-.118h-.774v.118h-.441v-.118h-.74v.118h-.441v-.118H24.364v.118h-.441v-.118h-.774v.118h-.441v-.118h-.74v.118h-.446v-.118h-.843V47.94h.843v-.113h.446v.113h.74v-.113h.441v.113h.774v-.113h.441v.113h2.573v-.113h.441v.113h.74v-.113h.441v.113h.774v-.113h.441v.113H30.6v.622h-.823v.118Z" transform="translate(-16.749 -38.737)"/><path class="l" d="M29.209,47.479V47.6h.818v.412h-.818v.113h-.23v-.113h-.985v.113h-.23v-.113h-.956v.113h-.23v-.113H23.8v.113h-.23v-.113h-.985v.113h-.23v-.113H21.4v.113h-.23v-.113h-.843V47.6h.843v-.117h.23V47.6h.955v-.117h.23V47.6h.985v-.117h.23V47.6h2.778v-.117h.23V47.6h.956v-.117h.23V47.6h.985v-.117Zm.211-.211h-.652v.118H28.2v-.118h-.652v.118h-.529v-.118h-.657v.118H24.01v-.118h-.657v.118h-.559v-.118h-.657v.118h-.529v-.118h-.652v.118h-.848v.833h.848v.113h.652v-.113h.529v.113h.657v-.113h.559v.113h.657v-.113h2.357v.113h.657v-.113h.529v.113H28.2v-.113h.564v.113h.652v-.113h.818v-.833H29.42Z" transform="translate(-16.287 -38.284)"/><path class="q" d="M70.532,48.6l-.451-.451.451-.451h1.044l.451.451-.451.451Z" transform="translate(-56.761 -38.634)"/><path class="l" d="M71.263,47.448l.377.377-.377.373H70.219l-.377-.373.377-.377Zm0-.152H70.219l-.524.529.524.524h1.044l.529-.524Z" transform="translate(-56.448 -38.306)"/><path class="q" d="M12.787,48.6l-.451-.451.451-.451h1.044l.451.451-.451.451Z" transform="translate(-9.991 -38.634)"/><path class="l" d="M13.5,47.448l.377.377L13.5,48.2H12.452l-.377-.373.377-.377Zm0-.152H12.452l-.529.529.529.524H13.5l.529-.524Z" transform="translate(-9.657 -38.306)"/><path class="p" d="M29.333,59.07v-.118h-.774v.118h-.441v-.118h-.74v.118h-.441v-.118H24.364v.118h-.441v-.118h-.774v.118h-.441v-.118h-.74v.118h-.446v-.118h-.843V58.33h.843v-.113h.446v.113h.74v-.113h.441v.113h.774v-.113h.441v.113h2.573v-.113h.441v.113h.74v-.113h.441v.113h.774v-.113h.441v.113H30.6v.622h-.823v.118Z" transform="translate(-16.749 -47.152)"/><path class="l" d="M29.209,57.869v.117h.818V58.4h-.818v.113h-.23V58.4h-.985v.113h-.23V58.4h-.956v.113h-.23V58.4H23.8v.113h-.23V58.4h-.985v.113h-.23V58.4H21.4v.113h-.23V58.4h-.843v-.412h.843v-.117h.23v.117h.955v-.117h.23v.117h.985v-.117h.23v.117h2.778v-.117h.23v.117h.956v-.117h.23v.117h.985v-.117Zm.211-.211h-.652v.113H28.2v-.113h-.652v.113h-.529v-.113h-.657v.113H24.01v-.113h-.657v.113h-.559v-.113h-.657v.113h-.529v-.113h-.652v.113h-.848v.838h.848v.113h.652v-.113h.529v.113h.657v-.113h.559v.113h.657v-.113h2.357v.113h.657v-.113h.529v.113H28.2v-.113h.564v.113h.652v-.113h.818v-.838H29.42Z" transform="translate(-16.287 -46.699)"/><path class="q" d="M70.532,58.99l-.451-.451.451-.451h1.044l.451.451-.451.451Z" transform="translate(-56.761 -47.047)"/><path class="l" d="M71.263,57.838l.377.377-.377.373H70.219l-.377-.373.377-.377Zm0-.152H70.219l-.524.529.524.524h1.044l.529-.524Z" transform="translate(-56.448 -46.722)"/><path class="q" d="M12.787,58.99l-.451-.451.451-.451h1.044l.451.451-.451.451Z" transform="translate(-9.991 -47.047)"/><path class="l" d="M13.5,57.838l.377.377-.377.373H12.452l-.377-.373.377-.377Zm0-.152H12.452l-.529.529.529.524H13.5l.529-.524Z" transform="translate(-9.657 -46.722)"/><path class="p" d="M29.333,68.238V68.12h-.774v.118h-.441V68.12h-.74v.118h-.441V68.12H24.364v.118h-.441V68.12h-.774v.118h-.441V68.12h-.74v.118h-.446V68.12h-.843V67.5h.843v-.113h.446V67.5h.74v-.113h.441V67.5h.774v-.113h.441V67.5h2.573v-.113h.441V67.5h.74v-.113h.441V67.5h.774v-.113h.441V67.5H30.6v.622h-.823v.118Z" transform="translate(-16.749 -54.577)"/><path class="l" d="M29.209,67.034v.117h.818v.412h-.818v.113h-.23v-.113h-.985v.113h-.23v-.113h-.956v.113h-.23v-.113H23.8v.113h-.23v-.113h-.985v.113h-.23v-.113H21.4v.113h-.23v-.113h-.843v-.412h.843v-.117h.23v.117h.955v-.117h.23v.117h.985v-.117h.23v.117h2.778v-.117h.23v.117h.956v-.117h.23v.117h.985v-.117Zm.211-.211h-.652v.113H28.2v-.113h-.652v.113h-.529v-.113h-.657v.113H24.01v-.113h-.657v.113h-.559v-.113h-.657v.113h-.529v-.113h-.652v.113h-.848v.838h.848v.113h.652v-.113h.529v.113h.657v-.113h.559v.113h.657v-.113h2.357v.113h.657v-.113h.529v.113H28.2v-.113h.564v.113h.652v-.113h.818v-.838H29.42Z" transform="translate(-16.287 -54.122)"/><path class="q" d="M70.532,68.155l-.451-.451.451-.451h1.044l.451.451-.451.451Z" transform="translate(-56.761 -54.47)"/><path class="l" d="M71.263,67.006l.377.377-.377.373H70.219l-.377-.373.377-.377Zm0-.152H70.219l-.524.529.524.524h1.044l.529-.524Z" transform="translate(-56.448 -54.147)"/><path class="q" d="M12.787,68.155l-.451-.451.451-.451h1.044l.451.451-.451.451Z" transform="translate(-9.991 -54.47)"/><path class="l" d="M13.5,67.006l.377.377-.377.373H12.452l-.377-.373.377-.377Zm0-.152H12.452l-.529.529.529.524H13.5l.529-.524Z" transform="translate(-9.657 -54.147)"/><rect class="l" width="0.437" height="0.437" transform="translate(124.206 3.054) rotate(-45)"/><rect class="l" width="0.437" height="0.437" transform="translate(103.896 3.054) rotate(-45)"/><rect class="l" width="0.437" height="0.437" transform="translate(83.662 3.054) rotate(-45)"/><rect class="l" width="0.437" height="0.437" transform="translate(58.966 3.054) rotate(-45)"/><rect class="l" width="0.437" height="0.437" transform="matrix(0.707, -0.707, 0.707, 0.707, 38.809, 3.054)"/><rect class="l" width="0.437" height="0.437" transform="translate(18.651 3.054) rotate(-45)"/><rect class="b" width="0.478" height="0.478" transform="matrix(0.707, -0.707, 0.707, 0.707, 14.853, 3.054)"/><path class="l" d="M78.356,14.193l.308.309-.308.309-.309-.309Zm0-.059-.368.368.368.367.367-.367Z" transform="translate(-63.165 -11.448)"/><rect class="r" width="0.478" height="0.478" transform="translate(11.087 3.054) rotate(-45)"/><path class="l" d="M58.541,14.193l.309.309-.309.309-.309-.309Zm0-.059-.368.368.368.367.368-.367Z" transform="translate(-47.116 -11.448)"/><rect class="b" width="0.478" height="0.478" transform="translate(127.77 3.054) rotate(-45.001)"/><path class="l" d="M672.431,14.193l.309.309-.309.309-.309-.309Zm0-.059-.368.368.368.367.368-.367Z" transform="translate(-544.323 -11.448)"/><rect class="r" width="0.478" height="0.478" transform="translate(131.536 3.054) rotate(-45.001)"/><path class="l" d="M692.247,14.193l.309.309-.309.309-.309-.309Zm0-.059-.368.368.368.367.367-.367Z" transform="translate(-560.372 -11.448)"/><rect class="l" width="0.437" height="0.437" transform="translate(65.147 21.007) rotate(-44.999)"/><rect class="l" width="0.437" height="0.437" transform="translate(77.611 21.007) rotate(-44.999)"/><rect class="l" width="0.437" height="0.437" transform="translate(65.147 41.625) rotate(-44.999)"/><rect class="l" width="0.437" height="0.437" transform="translate(77.611 41.625) rotate(-44.999)"/><rect class="l" width="0.437" height="0.437" transform="matrix(0.707, -0.707, 0.707, 0.707, 65.147, 62.244)"/><rect class="l" width="0.437" height="0.437" transform="matrix(0.707, -0.707, 0.707, 0.707, 77.611, 62.244)"/><rect class="m" width="123.919" height="1.333" transform="translate(9.703 15.314)"/><path class="l" d="M174.466,81.4H50.248V79.768H174.466ZM50.552,81.1H174.167V80.072H50.552Z" transform="translate(-40.697 -64.606)"/><rect class="l" width="0.437" height="0.437" transform="translate(124.206 15.98) rotate(-45)"/><rect class="l" width="0.437" height="0.437" transform="translate(103.896 15.98) rotate(-45)"/><rect class="l" width="0.437" height="0.437" transform="translate(83.662 15.98) rotate(-45)"/><rect class="l" width="0.437" height="0.437" transform="translate(58.966 15.98) rotate(-45)"/><rect class="l" width="0.437" height="0.437" transform="matrix(0.707, -0.707, 0.707, 0.707, 38.809, 15.98)"/><rect class="l" width="0.437" height="0.437" transform="translate(18.651 15.98) rotate(-45)"/><rect class="b" width="0.478" height="0.478" transform="matrix(0.707, -0.707, 0.707, 0.707, 14.853, 15.979)"/><path class="l" d="M78.356,82.194l.308.309-.308.309-.309-.309Zm0-.059-.368.368.368.367.367-.367Z" transform="translate(-63.165 -66.523)"/><rect class="r" width="0.478" height="0.478" transform="translate(11.087 15.979) rotate(-45)"/><path class="l" d="M58.541,82.194l.309.309-.309.309-.309-.309Zm0-.059-.368.368.368.367.368-.367Z" transform="translate(-47.116 -66.523)"/><rect class="b" width="0.478" height="0.478" transform="translate(127.77 15.979) rotate(-45.001)"/><path class="l" d="M672.431,82.194l.309.309-.309.309-.309-.309Zm0-.059-.368.368.368.367.368-.367Z" transform="translate(-544.323 -66.523)"/><rect class="r" width="0.478" height="0.478" transform="translate(131.536 15.979) rotate(-45.001)"/><path class="l" d="M692.247,82.194l.309.309-.309.309-.309-.309Zm0-.059-.368.368.368.367.367-.367Z" transform="translate(-560.372 -66.523)"/><rect class="m" width="4.268" height="0.681" transform="translate(129.398 8.139)"/><path class="l" d="M684.492,42.952h-4.057v-.47h4.057Zm.211-.681h-4.484v.9H684.7v-.9Z" transform="translate(-550.928 -34.236)"/><rect class="m" width="4.268" height="0.681" transform="translate(129.398 6.204)"/><path class="l" d="M684.492,32.766h-4.057V32.3h4.057Zm.211-.681h-4.484v.9H684.7v-.9Z" transform="translate(-550.928 -25.987)"/><rect class="m" width="4.268" height="0.681" transform="translate(129.398 12.148)"/><path class="l" d="M684.492,64.029h-4.057v-.47h4.057Zm.211-.681h-4.484v.9H684.7v-.9Z" transform="translate(-550.928 -51.307)"/><rect class="m" width="4.268" height="0.681" transform="translate(129.398 10.168)"/><path class="l" d="M684.492,53.613h-4.057v-.47h4.057Zm.211-.681h-4.484v.9H684.7v-.9Z" transform="translate(-550.928 -42.871)"/><rect class="m" width="4.268" height="0.681" transform="translate(9.595 8.139)"/><path class="l" d="M54.2,42.952H50.142v-.47H54.2Zm.211-.681H49.926v.9H54.41v-.9Z" transform="translate(-40.436 -34.236)"/><rect class="m" width="4.268" height="0.681" transform="translate(9.595 6.204)"/><path class="l" d="M54.2,32.766H50.142V32.3H54.2Zm.211-.681H49.926v.9H54.41v-.9Z" transform="translate(-40.436 -25.987)"/><rect class="m" width="4.268" height="0.681" transform="translate(9.595 12.148)"/><path class="l" d="M54.2,64.029H50.142v-.47H54.2Zm.211-.681H49.926v.9H54.41v-.9Z" transform="translate(-40.436 -51.307)"/><rect class="m" width="4.268" height="0.681" transform="translate(9.595 10.168)"/><path class="l" d="M54.2,53.613H50.142v-.47H54.2Zm.211-.681H49.926v.9H54.41v-.9Z" transform="translate(-40.436 -42.871)"/><rect class="n" width="115.501" height="0.652" transform="translate(13.922 12.163)"/><path class="l" d="M188.264,64.157H72.944v-.47H188.264Zm.181-.652H72.763v.833H188.445v-.833Z" transform="translate(-58.933 -51.434)"/><rect class="n" width="115.501" height="0.652" transform="translate(13.922 10.183)"/><path class="l" d="M188.264,53.741H72.944v-.47H188.264Zm.181-.652H72.763v.833H188.445v-.833Z" transform="translate(-58.933 -42.998)"/><rect class="n" width="115.501" height="0.652" transform="translate(13.922 8.154)"/><path class="l" d="M188.264,43.081H72.944v-.47H188.264Zm.181-.652H72.763v.833H188.445v-.833Z" transform="translate(-58.933 -34.364)"/><rect class="n" width="115.501" height="0.652" transform="translate(13.922 6.219)"/><path class="l" d="M188.264,32.894H72.944v-.47H188.264Zm.181-.652H72.763v.833H188.445v-.833Z" transform="translate(-58.933 -26.114)"/><rect class="o" width="0.618" height="2.857" transform="translate(59.583 10.173)"/><rect class="o" width="0.618" height="2.857" transform="translate(59.583 6.17)"/><path class="l" d="M313.081,32.928V28.875h-1.23v8.056h1.23ZM312,29.4h.921V32.57H312Zm0,4.048h.921v3.166H312Z" transform="translate(-252.577 -23.387)"/><path class="l" d="M312.651,56.147h.921V52.981h-.921Zm.774-.206h-.618V53.084h.618Z" transform="translate(-253.225 -42.911)"/><path class="l" d="M312.651,34.826h.921V31.66h-.921Zm.774-.157h-.618V31.812h.618Z" transform="translate(-253.225 -25.642)"/><rect class="o" width="0.618" height="2.857" transform="translate(58.348 10.173)"/><rect class="o" width="0.618" height="2.857" transform="translate(58.348 6.17)"/><path class="l" d="M306.611,32.928V28.875h-1.23v8.056h1.23ZM305.533,29.4h.921V32.57h-.921Zm0,4.048h.921v3.166h-.921Z" transform="translate(-247.337 -23.387)"/><path class="l" d="M306.18,56.147h.921V52.981h-.921Zm.769-.206h-.618V53.084h.618Z" transform="translate(-247.984 -42.911)"/><path class="l" d="M306.18,34.826h.921V31.66h-.921Zm.769-.157h-.618V31.812h.618Z" transform="translate(-247.984 -25.642)"/><rect class="o" width="0.618" height="2.857" transform="translate(84.433 10.173)"/><rect class="o" width="0.618" height="2.857" transform="translate(84.433 6.17)"/><path class="l" d="M443.819,32.928V28.875h-1.23v8.056h1.23ZM442.746,29.4h.921V32.57h-.921Zm0,4.048h.921v3.166h-.921Z" transform="translate(-358.465 -23.387)"/><path class="l" d="M443.414,56.147h.921V52.981h-.921Zm.769-.206h-.618V53.084h.618Z" transform="translate(-359.133 -42.911)"/><path class="l" d="M443.414,34.826h.921V31.66h-.921Zm.769-.157h-.618V31.812h.618Z" transform="translate(-359.133 -25.642)"/><rect class="o" width="0.618" height="2.857" transform="translate(83.198 10.173)"/><rect class="o" width="0.618" height="2.857" transform="translate(83.198 6.17)"/><path class="l" d="M437.348,32.928V28.875h-1.23v8.056h1.23ZM436.27,29.4h.921V32.57h-.921Zm0,4.048h.921v3.166h-.921Z" transform="translate(-353.224 -23.387)"/><path class="l" d="M436.917,56.147h.921V52.981h-.921Zm.769-.206h-.618V53.084h.618Z" transform="translate(-353.871 -42.911)"/><path class="l" d="M436.917,34.826h.921V31.66h-.921Zm.769-.157h-.618V31.812h.618Z" transform="translate(-353.871 -25.642)"/><rect class="o" width="0.618" height="2.857" transform="translate(104.509 10.173)"/><rect class="o" width="0.618" height="2.857" transform="translate(104.509 6.17)"/><path class="l" d="M549.471,32.928V28.875h-1.23v8.056h1.23ZM548.393,29.4h.921V32.57h-.921Zm0,4.048h.921v3.166h-.921Z" transform="translate(-444.036 -23.387)"/><path class="l" d="M549.041,56.147h.921V52.981h-.921Zm.769-.206h-.618V53.084h.618Z" transform="translate(-444.684 -42.911)"/><path class="l" d="M549.041,34.826h.921V31.66h-.921Zm.769-.157h-.618V31.812h.618Z" transform="translate(-444.684 -25.642)"/><rect class="o" width="0.618" height="2.857" transform="translate(103.279 10.173)"/><rect class="o" width="0.618" height="2.857" transform="translate(103.279 6.17)"/><path class="l" d="M543,32.928V28.875h-1.23v8.056H543ZM541.922,29.4h.921V32.57h-.921Zm0,4.048h.921v3.166h-.921Z" transform="translate(-438.795 -23.387)"/><path class="l" d="M542.569,56.147h.921V52.981h-.921Zm.769-.206h-.618V53.084h.618Z" transform="translate(-439.442 -42.911)"/><path class="l" d="M542.569,34.826h.921V31.66h-.921Zm.769-.157h-.618V31.812h.618Z" transform="translate(-439.442 -25.642)"/><rect class="o" width="0.618" height="2.857" transform="translate(124.821 10.173)"/><rect class="o" width="0.618" height="2.857" transform="translate(124.821 6.17)"/><path class="l" d="M656.335,32.928V28.875H655.1v8.056h1.23ZM655.257,29.4h.921V32.57h-.921Zm0,4.048h.921v3.166h-.921Z" transform="translate(-530.588 -23.387)"/><path class="l" d="M655.9,56.147h.921V52.981H655.9Zm.769-.206h-.618V53.084h.618Z" transform="translate(-531.235 -42.911)"/><path class="l" d="M655.9,34.826h.921V31.66H655.9Zm.769-.157h-.618V31.812h.618Z" transform="translate(-531.235 -25.642)"/><rect class="o" width="0.618" height="2.857" transform="translate(123.591 10.173)"/><rect class="o" width="0.618" height="2.857" transform="translate(123.591 6.17)"/><path class="l" d="M649.864,32.928V28.875h-1.23v8.056h1.23ZM648.786,29.4h.921V32.57h-.921Zm0,4.048h.921v3.166h-.921Z" transform="translate(-525.347 -23.387)"/><path class="l" d="M649.433,56.147h.921V52.981h-.921Zm.769-.206h-.618V53.084h.618Z" transform="translate(-525.994 -42.911)"/><path class="l" d="M649.433,34.826h.921V31.66h-.921Zm.769-.157h-.618V31.812h.618Z" transform="translate(-525.994 -25.642)"/><rect class="o" width="0.618" height="2.857" transform="translate(39.271 10.173)"/><rect class="o" width="0.618" height="2.857" transform="translate(39.271 6.17)"/><path class="l" d="M206.223,32.928V28.875h-1.235v8.056h1.235ZM205.145,29.4h.921V32.57h-.921Zm0,4.048h.921v3.166h-.921Z" transform="translate(-166.026 -23.387)"/><path class="l" d="M205.813,56.147h.921V52.981h-.921Zm.769-.206h-.618V53.084h.618Z" transform="translate(-166.694 -42.911)"/><path class="l" d="M205.813,34.826h.921V31.66h-.921Zm.769-.157h-.618V31.812h.618Z" transform="translate(-166.694 -25.642)"/><rect class="o" width="0.618" height="2.857" transform="translate(38.041 10.173)"/><rect class="o" width="0.618" height="2.857" transform="translate(38.041 6.17)"/><path class="l" d="M199.747,32.928V28.875h-1.23v8.056h1.23ZM198.669,29.4h.921V32.57h-.921Zm0,4.048h.921v3.166h-.921Z" transform="translate(-160.784 -23.387)"/><path class="l" d="M199.316,56.147h.921V52.981h-.921Zm.774-.206h-.618V53.084h.618Z" transform="translate(-161.432 -42.911)"/><path class="l" d="M199.316,34.826h.921V31.66h-.921Zm.774-.157h-.618V31.812h.618Z" transform="translate(-161.432 -25.642)"/><rect class="o" width="0.618" height="2.857" transform="translate(18.959 10.173)"/><rect class="o" width="0.618" height="2.857" transform="translate(18.959 6.17)"/><path class="l" d="M99.38,32.928V28.875H98.15v8.056h1.23ZM98.3,29.4h.921V32.57H98.3Zm0,4.048h.921v3.166H98.3Z" transform="translate(-79.494 -23.387)"/><path class="l" d="M98.949,56.147h.921V52.981h-.921Zm.769-.206H99.1V53.084h.618Z" transform="translate(-80.142 -42.911)"/><path class="l" d="M98.949,34.826h.921V31.66h-.921Zm.769-.157H99.1V31.812h.618Z" transform="translate(-80.142 -25.642)"/><rect class="o" width="0.618" height="2.857" transform="translate(17.729 10.173)"/><rect class="o" width="0.618" height="2.857" transform="translate(17.729 6.17)"/><path class="l" d="M92.888,32.928V28.875H91.653v8.056h1.235ZM91.81,29.4h.921V32.57H91.81Zm0,4.048h.921v3.166H91.81Z" transform="translate(-74.232 -23.387)"/><path class="l" d="M92.478,56.147H93.4V52.981h-.921Zm.769-.206H92.63V53.084h.618Z" transform="translate(-74.901 -42.911)"/><path class="l" d="M92.478,34.826H93.4V31.66h-.921Zm.769-.157H92.63V31.812h.618Z" transform="translate(-74.901 -25.642)"/></g></svg>